<?xml version="1.0" standalone="no"?><!DOCTYPE svg PUBLIC "-//W3C//DTD SVG 1.1//EN" "http://www.w3.org/Graphics/SVG/1.1/DTD/svg11.dtd"><svg t="1597034200527" class="icon" viewBox="0 0 1024 1024" version="1.1" xmlns="http://www.w3.org/2000/svg" p-id="6031" xmlns:xlink="http://www.w3.org/1999/xlink" width="200" height="200"><defs><style type="text/css"></style></defs><path d="M512 0C226.742857 0 0 226.742857 0 512s226.742857 512 512 512 512-226.742857 512-512-226.742857-512-512-512z m329.142857 329.142857l-431.542857 431.542857c-7.314286 7.314286-21.942857 14.628571-29.257143 14.628572-7.314286 0-21.942857-7.314286-29.257143-14.628572L182.857143 592.457143c-14.628571-14.628571-14.628571-43.885714 0-58.514286 14.628571-21.942857 43.885714-21.942857 58.514286 0l138.971428 138.971429 402.285714-402.285715c14.628571-14.628571 43.885714-14.628571 58.514286 0 14.628571 14.628571 14.628571 36.571429 0 58.514286z" fill="" p-id="6032"></path></svg>