<?xml version="1.0" standalone="no"?><!DOCTYPE svg PUBLIC "-//W3C//DTD SVG 1.1//EN" "http://www.w3.org/Graphics/SVG/1.1/DTD/svg11.dtd"><svg t="1597034308028" class="icon" viewBox="0 0 1024 1024" version="1.1" xmlns="http://www.w3.org/2000/svg" p-id="9222" xmlns:xlink="http://www.w3.org/1999/xlink" width="200" height="200"><defs><style type="text/css"></style></defs><path d="M871.22944 912.47104H512c-54.04672 0-106.496-10.59328-155.89376-31.488a399.104 399.104 0 0 1-127.2832-85.8112 399.104 399.104 0 0 1-85.8112-127.2832c-20.8896-49.39776-31.488-101.84704-31.488-155.89376s10.59328-106.496 31.488-155.89376c20.1728-47.6928 49.04448-90.51648 85.8112-127.2832s79.5904-65.6384 127.2832-85.8112c49.39776-20.89472 101.84704-31.488 155.89376-31.488s106.496 10.59328 155.89376 31.488c47.6928 20.1728 90.51648 49.04448 127.2832 85.8112s65.6384 79.5904 85.8112 127.2832c20.89472 49.39776 31.488 101.84704 31.488 155.89376 0 54.62528-10.81344 107.5968-32.14336 157.43488a398.32576 398.32576 0 0 1-62.11072 100.69504l79.17568 79.17568a36.99712 36.99712 0 0 1-26.16832 63.17056zM512 185.52832c-180.0192 0-326.47168 146.45248-326.47168 326.47168S331.9808 838.47168 512 838.47168h269.90592l-41.18528-41.18528a36.99712 36.99712 0 0 1 0.00512-52.3264l0.21504-0.20992c62.89408-61.8752 97.536-144.53248 97.536-232.74496C838.47168 331.9808 692.0192 185.52832 512 185.52832z" p-id="9223"></path><path d="M488.4736 714.7264a37.00736 37.00736 0 0 1-36.11648-45.06624l33.024-147.82464a37.00224 37.00224 0 0 1-11.61728-71.07584l48.02048-19.99872a37.00224 37.00224 0 0 1 50.33984 42.21952l-33.08032 148.09088a36.99712 36.99712 0 0 1 9.8048 70.52288l-45.48096 19.99872a37.03296 37.03296 0 0 1-14.89408 3.13344z m8.76032-319.44192a37.00736 37.00736 0 0 1-11.73504-72.10496l35.88096-12.00128a37.00224 37.00224 0 0 1 23.4752 70.17984l-35.88096 12.00128a36.7616 36.7616 0 0 1-11.74016 1.92512z" p-id="9224"></path></svg>