<?xml version="1.0" standalone="no"?><!DOCTYPE svg PUBLIC "-//W3C//DTD SVG 1.1//EN" "http://www.w3.org/Graphics/SVG/1.1/DTD/svg11.dtd"><svg t="1597033993820" class="icon" viewBox="0 0 1194 1024" version="1.1" xmlns="http://www.w3.org/2000/svg" p-id="1424" xmlns:xlink="http://www.w3.org/1999/xlink" width="233.203125" height="200"><defs><style type="text/css"></style></defs><path d="M991.424 0H203.306667L0 370.133333 597.930667 1024 1194.666667 367.573333zM756.416 393.6L597.333333 901.546667l-159.018666-507.946667h318.037333z m-308.032-46.933333l149.184-258.56L746.666667 346.666667H448.384zM627.84 46.72h317.866667l-158.912 275.84zM408.106667 322.133333L249.429333 46.72H566.826667z m-39.978667 24.533334H66.133333l147.434667-267.946667z m20.949333 46.933333l158.250667 505.6-462.293333-505.6h304.042666z m416.384 0h301.994667L646.848 900.266667z m21.504-46.933333L981.397333 78.933333l148.096 267.733334H827.029333z m0 0" p-id="1425"></path></svg>