<?xml version="1.0" standalone="no"?><!DOCTYPE svg PUBLIC "-//W3C//DTD SVG 1.1//EN" "http://www.w3.org/Graphics/SVG/1.1/DTD/svg11.dtd"><svg t="1597038800937" class="icon" viewBox="0 0 1024 1024" version="1.1" xmlns="http://www.w3.org/2000/svg" p-id="18057" xmlns:xlink="http://www.w3.org/1999/xlink" width="200" height="200"><defs><style type="text/css"></style></defs><path d="M585.523941 126.40659V45.888492a42.647298 42.647298 0 0 1 75.059244-27.720743l183.127496 213.492372a42.647298 42.647298 0 0 1 0 55.526782L660.583185 500.679275a42.647298 42.647298 0 0 1-75.059244-27.720744v-76.509252H199.821781c-52.370882 1.791187-55.356192 3.838257-55.356192 18.253044V511.767572a42.647298 42.647298 0 0 1-75.400423 27.294271 302.454635 302.454635 0 0 1-34.117838-53.223828C13.964858 445.152493 1.255963 401.566955 1.255963 356.446114c0-130.756615 62.606233-230.039524 191.827545-230.039524h392.440433z m85.294596 42.647298a42.647298 42.647298 0 0 1-42.647298 42.647298H193.083508c-68.235676 0-103.035871 49.897338-106.277066 131.78015 22.688362-20.300114 59.620922-30.535465 111.565331-32.326652h429.88476a42.647298 42.647298 0 0 1 42.647298 42.647298v3.923551l84.185766-98.259374-84.27106-98.344668v7.932397z m-216.477683 812.260432a42.647298 42.647298 0 0 1-73.950415 29.000162L185.3217 799.722126a42.647298 42.647298 0 0 1 0-58.000325L380.390439 531.385329a42.647298 42.647298 0 0 1 73.950415 29.000163v74.80336h372.993265c49.470865 0 52.541471-2.302954 52.541471-17.485392V522.002924a42.647298 42.647298 0 0 1 75.400422-27.294271c9.041227 10.747119 21.408943 28.744279 33.77666 52.541471 20.726587 40.259049 33.264892 83.247525 33.264892 127.856598 0 126.918358-67.126847 227.395391-194.983445 227.395392H454.340854v78.812206z m-85.294596-121.459504a42.647298 42.647298 0 0 1 42.647298-42.647298h415.640563c67.38273 0 104.912352-50.067927 109.262377-127.003652-22.858952 20.300114-59.279744 30.194287-109.177082 30.194287H411.608261a42.647298 42.647298 0 0 1-42.647297-42.647298v-8.700049L274.79573 770.807258l94.250528 101.671158v-12.6236z" fill="#2D77C1" p-id="18058"></path></svg>