<?xml version="1.0" standalone="no"?><!DOCTYPE svg PUBLIC "-//W3C//DTD SVG 1.1//EN" "http://www.w3.org/Graphics/SVG/1.1/DTD/svg11.dtd"><svg t="1597034299586" class="icon" viewBox="0 0 1024 1024" version="1.1" xmlns="http://www.w3.org/2000/svg" p-id="8476" xmlns:xlink="http://www.w3.org/1999/xlink" width="200" height="200"><defs><style type="text/css"></style></defs><path d="M512 0C229.60128 0 0 229.60128 0 512s229.6064 512 512 512c282.39872 0 512-229.60128 512-512S794.39872 0 512 0z m62.40256 957.59872c-102.4 14.40256-208-7.19872-296.80128-60.8-15.2064-8.80128-19.99872-28.8-11.20256-44.00128 8.79616-15.2064 28.8-19.99872 44.00128-11.20256h0.79872c76.00128 46.40256 166.4 64.7936 254.40256 51.9936 210.40128-30.40256 357.60128-226.40128 327.1936-436.80256-14.39744-100.79232-67.9936-192.78848-150.4-253.58848-81.59744-61.60384-183.99744-88.00256-285.5936-72.80128-211.2 30.40256-357.6064 226.40128-327.19872 436.80256 8.00256 55.1936 27.20256 106.3936 56.80128 152.80128 9.6 14.40256 4.80256 34.40128-9.6 44.00128-14.40256 9.6-34.40128 5.6064-44.00128-9.6C98.40128 700.8 75.20256 640 66.40128 576c-16.79872-118.4 13.5936-238.40256 85.60128-333.59872 12.8-17.60256 27.20256-33.60256 40.80128-49.60256 68.80256-68.80256 157.59872-112.79872 253.59872-126.40256 118.4-16.79872 238.40256 13.59872 333.59872 85.60128 96 71.19872 159.20128 177.60256 176 296.00256 35.2 245.60128-136.00256 474.39872-381.59872 509.59872zM280.74496 512a35.84 35.84 0 0 1 35.84-35.84h47.78496a35.84 35.84 0 1 1 0 71.68h-47.78496a35.84 35.84 0 0 1-35.84-35.84z m187.73504 0a35.84 35.84 0 0 1 35.84-35.84h47.78496a35.84 35.84 0 1 1 0 71.68H504.32a35.84 35.84 0 0 1-35.84-35.84z m184.32 0a35.84 35.84 0 0 1 35.84-35.84h47.78496a35.84 35.84 0 1 1 0 71.68H688.64a35.84 35.84 0 0 1-35.84-35.84z" p-id="8477"></path></svg>