<?xml version="1.0" standalone="no"?><!DOCTYPE svg PUBLIC "-//W3C//DTD SVG 1.1//EN" "http://www.w3.org/Graphics/SVG/1.1/DTD/svg11.dtd"><svg t="1597038715366" class="icon" viewBox="0 0 1024 1024" version="1.1" xmlns="http://www.w3.org/2000/svg" p-id="15614" xmlns:xlink="http://www.w3.org/1999/xlink" width="200" height="200"><defs><style type="text/css"></style></defs><path d="M512 1024C229.236364 1024 0 794.763636 0 512S229.236364 0 512 0s512 229.236364 512 512-229.236364 512-512 512z m0-69.818182c244.200727 0 442.181818-197.981091 442.181818-442.181818 0-85.922909-24.506182-166.097455-66.909091-233.960727a444.555636 444.555636 0 0 0-113.570909-122.484364A440.203636 440.203636 0 0 0 512 69.818182C267.799273 69.818182 69.818182 267.799273 69.818182 512s197.981091 442.181818 442.181818 442.181818z" p-id="15615"></path><path d="M517.632 507.252364v-213.969455c0-20.596364-16.896-37.282909-37.725091-37.282909S442.181818 272.686545 442.181818 293.282909v251.252364c0 20.596364 16.896 37.282909 37.701818 37.282909h227.141819c20.805818 0 37.701818-16.686545 37.701818-37.282909 0-20.596364-16.896-37.282909-37.701818-37.282909h-189.393455z" p-id="15616"></path></svg>