<?xml version="1.0" standalone="no"?><!DOCTYPE svg PUBLIC "-//W3C//DTD SVG 1.1//EN" "http://www.w3.org/Graphics/SVG/1.1/DTD/svg11.dtd"><svg t="1597034255228" class="icon" viewBox="0 0 1024 1024" version="1.1" xmlns="http://www.w3.org/2000/svg" p-id="6811" xmlns:xlink="http://www.w3.org/1999/xlink" width="200" height="200"><defs><style type="text/css"></style></defs><path d="M421.76 864H160v-197.76c0-14.08-14.08-26.24-32-26.24s-32 11.52-32 26.24V896c0 17.92 14.08 32 32 32h293.76c14.08 0 26.24-14.08 26.24-32s-11.52-32-26.24-32zM896 640c-17.92 0-32 11.52-32 26.24V864H602.24c-14.08 0-26.24 14.08-26.24 32s11.52 32 26.24 32H896c17.92 0 32-14.08 32-32v-229.76c0-14.72-14.08-26.24-32-26.24zM896 96H602.24c-14.08 0-26.24 14.08-26.24 32s11.52 32 26.24 32H864v197.76c0 14.08 14.08 26.24 32 26.24s32-11.52 32-26.24V128c0-17.92-14.08-32-32-32zM128 384c17.92 0 32-11.52 32-26.24V160h261.76c14.08 0 26.24-14.08 26.24-32s-11.52-32-26.24-32H128c-17.92 0-32 14.08-32 32v229.76c0 14.72 14.08 26.24 32 26.24zM685.44 727.68c12.8 12.16 33.28 10.88 44.8-1.92 12.16-12.8 10.88-33.28-1.92-44.8l-90.24-83.2c20.48-27.52 33.92-61.44 37.12-97.92C684.8 392.32 605.44 297.6 498.56 288c-107.52-8.96-202.24 70.4-212.48 177.28-9.6 107.52 69.76 202.24 176.64 211.84 5.76 0.64 11.52 0.64 17.28 0.64 41.6 0 80-13.44 112-35.2l93.44 85.12zM480.64 614.4c-72.96 0-131.84-58.88-131.2-131.84 0-72.32 58.88-131.2 131.2-131.2 3.84 0 7.68 0 11.52 1.28 72.32 6.4 126.08 70.4 119.68 142.72-6.4 67.2-63.36 119.04-131.2 119.04z" p-id="6812"></path></svg>