<?xml version="1.0" standalone="no"?><!DOCTYPE svg PUBLIC "-//W3C//DTD SVG 1.1//EN" "http://www.w3.org/Graphics/SVG/1.1/DTD/svg11.dtd"><svg t="1597038811646" class="icon" viewBox="0 0 1024 1024" version="1.1" xmlns="http://www.w3.org/2000/svg" p-id="18788" xmlns:xlink="http://www.w3.org/1999/xlink" width="200" height="200"><defs><style type="text/css"></style></defs><path d="M68.727 332.704L26.064 383.9l42.663-68.262L477.87 571.405a76.943 76.943 0 0 0 68.262 0l409.142-255.767 42.663 68.262-42.663-51.196 42.663-51.196-42.663 68.261L546.13 93.938a76.943 76.943 0 0 0-68.262 0L68.727 349.684l-42.663-68.262zM26.064 383.9a63.42 63.42 0 0 1 0-102.392L435.206 17.229a179.485 179.485 0 0 1 153.375 0l409.355 264.279a63.654 63.654 0 0 1 0 102.392L588.581 648.157a179.42 179.42 0 0 1-153.375 0z m-8.533 76.794a72.378 72.378 0 0 0 8.533 102.392l409.142 264.278a180.551 180.551 0 0 0 153.375 0l409.355-264.278a72.528 72.528 0 0 0 8.533-102.392 100.451 100.451 0 0 0-8.533 8.533L588.581 733.484a179.954 179.954 0 0 1-153.375 0L26.064 469.227a89.337 89.337 0 0 0-8.533-8.533z m0 179.015a72.528 72.528 0 0 0 8.533 102.393l409.142 264.257a180.551 180.551 0 0 0 153.375 0l409.355-264.257a72.528 72.528 0 0 0 8.533-102.393 97.337 97.337 0 0 0-8.533 8.533l-409.355 264.3a180.253 180.253 0 0 1-153.375 0l-409.142-264.3a97.337 97.337 0 0 0-8.533-8.533z m0 0" p-id="18789"></path></svg>