<?xml version="1.0" standalone="no"?><!DOCTYPE svg PUBLIC "-//W3C//DTD SVG 1.1//EN" "http://www.w3.org/Graphics/SVG/1.1/DTD/svg11.dtd"><svg t="1597033965154" class="icon" viewBox="0 0 1210 1024" version="1.1" xmlns="http://www.w3.org/2000/svg" p-id="1298" xmlns:xlink="http://www.w3.org/1999/xlink" width="236.328125" height="200"><defs><style type="text/css"></style></defs><path d="M1202.129455 555.426909c5.632 2.327273 7.261091 5.445818 7.26109 11.636364 0 164.491636 0 283.182545 0.791273 448.418909 0 6.190545-1.629091 8.517818-8.843636 8.517818H8.843636c-7.214545 0-8.843636-1.536-8.843636-8.517818V107.054545c0-7.773091 2.420364-9.309091 9.634909-9.30909H220.16c4.840727 0 9.634909 0.791273 14.475636 3.118545 201.728 94.626909 403.409455 189.253818 603.508364 283.927273 2.420364 0.744727 4.840727 2.327273 8.843636 3.863272V9.309091c0-7.773091 2.420364-9.309091 10.472728-9.309091 20.061091 0.791273 39.377455 0 59.438545 0 6.423273 0 8.052364 0.791273 8.052364 6.981818 0 27.136 0.791273 54.318545 0 81.454546-0.791273 6.981818 0.791273 9.309091 8.843636 9.309091 36.957091-0.791273 73.914182 0 110.871273-0.791273 7.261091 0 9.681455 1.582545 9.681454 9.309091v370.827636c0 6.981818 1.582545 10.100364 8.005819 13.172364 46.638545 20.945455 93.230545 43.473455 139.822545 65.163636zM194.094545 930.909091h77.824c5.771636 0 7.912727-1.675636 7.214546-7.540364v-402.152727c0-7.540364-1.396364-9.216-7.912727-9.216-25.972364 0-51.2 0.837818-77.125819 0-5.771636 0-7.912727 1.675636-7.912727 9.216v401.314909c0 6.702545 2.141091 8.378182 7.912727 8.378182z m217.646546 0c5.725091 0 7.168-0.837818 7.168-7.540364 0-134.609455 0-269.218909-0.698182-402.990545 0-7.540364-2.187636-8.378182-7.168-8.378182-25.786182 0-51.572364 0.837818-77.358545 0-5.725091 0-7.866182 1.675636-7.866182 9.216v401.314909c0 5.864727 1.396364 8.378182 7.168 8.378182h78.754909z m62.370909 0h77.824c5.026909 0 7.214545-1.675636 6.516364-6.702546v-404.666181c0-6.702545-1.489455-7.540364-6.516364-7.540364-25.972364 0-52.596364 0.837818-78.568727 0-7.214545 0-7.912727 2.513455-7.912728 10.053818v399.639273c0 7.540364 2.141091 9.216 8.657455 9.216z" fill="#C4C6D2" p-id="1299"></path></svg>