<?xml version="1.0" standalone="no"?><!DOCTYPE svg PUBLIC "-//W3C//DTD SVG 1.1//EN" "http://www.w3.org/Graphics/SVG/1.1/DTD/svg11.dtd"><svg t="1597038990262" class="icon" viewBox="0 0 1024 1024" version="1.1" xmlns="http://www.w3.org/2000/svg" p-id="21881" xmlns:xlink="http://www.w3.org/1999/xlink" width="200" height="200"><defs><style type="text/css"></style></defs><path d="M944.872727 174.545455c0-39.563636-30.254545-69.818182-69.818182-69.818182h-744.727272c-39.563636 0-69.818182 30.254545-69.818182 69.818182v512c0 39.563636 30.254545 69.818182 69.818182 69.818181h249.018182l-46.545455 186.181819h339.781818l-46.545454-186.181819h318.836363v-581.818181z m-551.563636 721.454545l34.909091-139.636364h148.945454l34.909091 139.636364h-218.763636z m505.018182-186.181818h-768c-13.963636 0-23.272727-9.309091-23.272728-23.272727v-46.545455h791.272728v69.818182z m0-116.363637h-791.272728v-418.90909c0-13.963636 9.309091-23.272727 23.272728-23.272728h744.727272c13.963636 0 23.272727 9.309091 23.272728 23.272728v418.90909z" p-id="21882"></path><path d="M814.545455 407.272727h-121.018182L630.690909 325.818182c-9.309091-11.636364-27.927273-11.636364-37.236364 0l-88.436363 118.690909-111.709091-202.472727c-9.309091-16.290909-30.254545-16.290909-39.563636 0l-102.4 165.236363H174.545455c-13.963636 0-23.272727 9.309091-23.272728 23.272728s9.309091 23.272727 23.272728 23.272727h88.436363c6.981818 0 16.290909-4.654545 18.618182-11.636364l90.763636-139.636363 111.709091 200.145454c9.309091 13.963636 27.927273 16.290909 39.563637 2.327273l90.763636-123.345455 53.527273 65.163637c4.654545 4.654545 11.636364 9.309091 18.618182 9.309091H814.545455c13.963636 0 23.272727-9.309091 23.272727-23.272728s-9.309091-25.6-23.272727-25.6z" p-id="21883"></path></svg>