<?xml version="1.0" standalone="no"?><!DOCTYPE svg PUBLIC "-//W3C//DTD SVG 1.1//EN" "http://www.w3.org/Graphics/SVG/1.1/DTD/svg11.dtd"><svg t="1597038852937" class="icon" viewBox="0 0 1024 1024" version="1.1" xmlns="http://www.w3.org/2000/svg" p-id="20304" xmlns:xlink="http://www.w3.org/1999/xlink" width="200" height="200"><defs><style type="text/css"></style></defs><path d="M217.6 154.88c-1.28 0-3.84 0-5.12-1.28l-153.6-76.8C52.48 74.24 49.92 66.56 52.48 60.16 56.32 53.76 64 51.2 69.12 53.76l153.6 76.8c6.4 2.56 8.96 10.24 5.12 16.64C226.56 152.32 222.72 154.88 217.6 154.88z" p-id="20305"></path><path d="M217.6 782.08c-7.68 0-12.8-5.12-12.8-12.8l0-627.2c0-7.68 5.12-12.8 12.8-12.8s12.8 5.12 12.8 12.8l0 627.2C230.4 776.96 225.28 782.08 217.6 782.08z" p-id="20306"></path><path d="M960 782.08 217.6 782.08c-7.68 0-12.8-5.12-12.8-12.8s5.12-12.8 12.8-12.8l742.4 0c7.68 0 12.8 5.12 12.8 12.8S967.68 782.08 960 782.08z" p-id="20307"></path><path d="M883.2 718.08 345.6 718.08c-7.68 0-12.8-5.12-12.8-12.8l0-524.8c0-3.84 1.28-6.4 3.84-8.96 2.56-2.56 5.12-3.84 8.96-3.84 0 0 0 0 0 0l537.6 1.28c7.68 0 12.8 5.12 12.8 12.8l0 523.52c0 3.84-1.28 6.4-3.84 8.96C889.6 716.8 887.04 718.08 883.2 718.08zM358.4 692.48l512 0 0-497.92-512-1.28L358.4 692.48z" p-id="20308"></path><path d="M665.6 372.48l-115.2 0c-7.68 0-12.8-5.12-12.8-12.8l0-179.2c0-7.68 5.12-12.8 12.8-12.8l115.2 0c7.68 0 12.8 5.12 12.8 12.8l0 179.2C678.4 367.36 673.28 372.48 665.6 372.48zM563.2 346.88l89.6 0 0-153.6-89.6 0L563.2 346.88z" p-id="20309"></path><path d="M386.56 971.52c-43.52 0-78.08-34.56-78.08-78.08s34.56-78.08 78.08-78.08 78.08 34.56 78.08 78.08S428.8 971.52 386.56 971.52zM386.56 839.68c-29.44 0-52.48 23.04-52.48 52.48 0 29.44 23.04 52.48 52.48 52.48s52.48-23.04 52.48-52.48C439.04 864 414.72 839.68 386.56 839.68z" p-id="20310"></path><path d="M792.32 971.52c-43.52 0-78.08-34.56-78.08-78.08s34.56-78.08 78.08-78.08 78.08 34.56 78.08 78.08S834.56 971.52 792.32 971.52zM792.32 839.68c-29.44 0-52.48 23.04-52.48 52.48 0 29.44 23.04 52.48 52.48 52.48S844.8 921.6 844.8 893.44C844.8 864 820.48 839.68 792.32 839.68z" p-id="20311"></path></svg>