<?xml version="1.0" standalone="no"?><!DOCTYPE svg PUBLIC "-//W3C//DTD SVG 1.1//EN" "http://www.w3.org/Graphics/SVG/1.1/DTD/svg11.dtd"><svg t="1597034456652" class="icon" viewBox="0 0 1024 1024" version="1.1" xmlns="http://www.w3.org/2000/svg" p-id="13008" xmlns:xlink="http://www.w3.org/1999/xlink" width="200" height="200"><defs><style type="text/css"></style></defs><path d="M495.744677 662.991042c0 13.311445 10.836882 24.212324 24.08433 24.212325h187.960168l-95.484021 94.524061a23.081705 23.081705 0 0 0 0 33.68393 23.679013 23.679013 0 0 0 34.025249 0l135.482355-134.095746c0.447981-0.383984 0.938628-0.703971 1.365276-1.13062 1.279947-1.301279 2.367901-2.687888 3.327862-4.117161 6.741052-9.5996 5.84509-22.783051-2.815883-30.270739a24.95896 24.95896 0 0 0-4.330486-3.413191l-132.538478-134.309071a23.252364 23.252364 0 0 0-33.790592 0 24.95896 24.95896 0 0 0 0 35.155869l95.164035 95.590683h-188.344152a24.148327 24.148327 0 0 0-24.105663 24.16966z" p-id="13009"></path><path d="M1016.064331 303.176701L835.058539 11.050206a24.468314 24.468314 0 0 0-22.420399-10.879546C812.019499 0.149327 811.443523 0 810.80355 0H211.575184c-10.111579 0-18.793884 6.357068-22.356401 15.295363L10.836882 303.176701a26.921545 26.921545 0 0 0-2.325237 5.055789 24.020332 24.020332 0 0 0-4.309153 13.716762v96.827966c0 13.311445 10.858214 24.212324 24.105662 24.212324 13.26878 0 24.105662-10.900879 24.105662-24.212324v-60.520145c0-7.253031 4.821132-12.095496 12.052831-12.095496h892.208158c7.231699 0 12.052831 4.842465 12.052831 12.095496v605.180117c0 7.253031-4.821132 12.095496-12.052831 12.095496H64.48798c-7.231699 0-12.052831-4.842465-12.052831-12.095496v-60.520145c0-13.311445-10.858214-24.212324-24.105663-24.212324-13.26878 0-24.105662 10.900879-24.105662 24.212324v96.827966c0 13.311445 10.858214 24.212324 24.105662 24.212324h964.546478c13.26878 0 24.105662-10.900879 24.105662-24.212324V327.879672a25.172284 25.172284 0 0 0-0.917295-24.702971z m-60.925462-5.439773H71.762343L226.251906 48.424649h574.3974l154.489563 249.312279z" p-id="13010"></path><path d="M36.883797 566.141744h337.223282a24.212324 24.212324 0 0 0 0-48.424649H36.883797a24.212324 24.212324 0 0 0 0 48.424649zM36.883797 687.182034h192.695971a24.212324 24.212324 0 0 0 0-48.424649H36.883797a24.212324 24.212324 0 0 0 0 48.424649zM36.883797 808.243657h72.252989a24.212324 24.212324 0 0 0 0-48.424649H36.883797a24.212324 24.212324 0 0 0 0 48.424649z" p-id="13011"></path></svg>