<?xml version="1.0" standalone="no"?><!DOCTYPE svg PUBLIC "-//W3C//DTD SVG 1.1//EN" "http://www.w3.org/Graphics/SVG/1.1/DTD/svg11.dtd"><svg t="1597034421173" class="icon" viewBox="0 0 1024 1024" version="1.1" xmlns="http://www.w3.org/2000/svg" p-id="11504" xmlns:xlink="http://www.w3.org/1999/xlink" width="200" height="200"><defs><style type="text/css"></style></defs><path d="M204.8 273.066667V119.466667a68.266667 68.266667 0 0 1 68.266667-68.266667h477.866666a68.266667 68.266667 0 0 1 68.266667 68.266667v153.6h102.4a68.266667 68.266667 0 0 1 68.266667 68.266666v375.466667a68.266667 68.266667 0 0 1-68.266667 68.266667h-51.2v-68.266667h51.2V341.333333H102.4v375.466667h51.2v68.266667H102.4a68.266667 68.266667 0 0 1-68.266667-68.266667V341.333333a68.266667 68.266667 0 0 1 68.266667-68.266666h102.4z m68.266667 0h477.866666V119.466667H273.066667v153.6z m0 307.2h477.866666a68.266667 68.266667 0 0 1 68.266667 68.266666v256a68.266667 68.266667 0 0 1-68.266667 68.266667H273.066667a68.266667 68.266667 0 0 1-68.266667-68.266667V648.533333a68.266667 68.266667 0 0 1 68.266667-68.266666z m0 68.266666v256h477.866666V648.533333H273.066667z" p-id="11505"></path></svg>