<?xml version="1.0" standalone="no"?><!DOCTYPE svg PUBLIC "-//W3C//DTD SVG 1.1//EN" "http://www.w3.org/Graphics/SVG/1.1/DTD/svg11.dtd"><svg t="1597034426968" class="icon" viewBox="0 0 1024 1024" version="1.1" xmlns="http://www.w3.org/2000/svg" p-id="11630" xmlns:xlink="http://www.w3.org/1999/xlink" width="200" height="200"><defs><style type="text/css"></style></defs><path d="M741.351489 161.684211 280.277143 161.684211C259.414846 161.684211 242.526316 145.763687 242.526316 126.097158L242.526316 35.587053C242.526316 15.920524 259.414846 0 280.277143 0L741.351489 0C762.213786 0 779.102316 15.920524 779.102316 35.587053L779.102316 126.097158C779.102316 145.763687 762.213786 161.684211 741.351489 161.684211ZM864.957688 215.578947 159.042312 215.578947C86.073064 215.578947 26.947368 283.724768 26.947368 367.690154L26.947368 652.98993C26.947368 737.016164 86.073064 805.101137 159.042312 805.101137L177.007223 805.101137C194.443754 805.101137 208.551494 788.855662 208.551494 768.776979L208.551494 686.819463C208.551494 636.440231 244.058619 595.552741 287.808463 595.552741L736.931269 595.552741C780.733952 595.552741 816.188233 636.440231 816.188233 686.819463L816.188233 768.776979C816.188233 788.855662 830.348811 805.101137 847.73251 805.101137L864.957688 805.101137C937.926936 805.101137 997.052632 737.016164 997.052632 652.98993L997.052632 367.690154C997.052632 283.724768 937.926936 215.578947 864.957688 215.578947ZM896.554798 394.035814C896.554798 415.696449 881.284624 433.280507 862.421466 433.280507L833.836118 433.280507C814.97296 433.280507 799.702787 415.696449 799.702787 394.035814L799.702787 363.613572C799.702787 341.892091 814.97296 324.308038 833.836118 324.308038L862.421466 324.308038C881.284624 324.308038 896.554798 341.892091 896.554798 363.613572L896.554798 394.035814ZM737.962097 646.736842 283.666534 646.736842C260.934225 646.736842 242.526316 667.381776 242.526316 692.957825L242.526316 977.779017C242.526316 1003.28932 260.934225 1024 283.666534 1024L737.962097 1024C760.694407 1024 779.102316 1003.28932 779.102316 977.779017L779.102316 692.957825C779.102316 667.381776 760.694407 646.736842 737.962097 646.736842ZM640.487823 916.210526 380.49799 916.210526C362.84977 916.210526 348.649386 904.255693 348.649386 889.508136 348.649386 874.760575 362.908209 862.315789 380.49799 862.315789L640.487823 862.315789C658.077604 862.315789 672.336433 874.221627 672.336433 889.018179 672.336433 903.716745 658.077604 916.210526 640.487823 916.210526L640.487823 916.210526ZM640.487823 808.421053 380.49799 808.421053C362.84977 808.421053 348.649386 796.477079 348.649386 781.742915 348.649386 767.008746 362.908209 754.526316 380.49799 754.526316L640.487823 754.526316C658.077604 754.526316 672.336433 766.47029 672.336433 781.204453 672.336433 795.938622 658.077604 808.421053 640.487823 808.421053L640.487823 808.421053Z" p-id="11631"></path></svg>