<?xml version="1.0" standalone="no"?><!DOCTYPE svg PUBLIC "-//W3C//DTD SVG 1.1//EN" "http://www.w3.org/Graphics/SVG/1.1/DTD/svg11.dtd"><svg t="1597038788566" class="icon" viewBox="0 0 1024 1024" version="1.1" xmlns="http://www.w3.org/2000/svg" p-id="17309" xmlns:xlink="http://www.w3.org/1999/xlink" width="200" height="200"><defs><style type="text/css"></style></defs><path d="M423.6 908c-5.6 0-11.3-1-16.7-3l-67.7-24.6c-25-9.1-38.1-36.7-29.4-61.7l10.7-36.4c-15.1-10.7-29.3-22.6-42.4-35.6l-34 16.9c-23.2 12.9-52.6 4.8-65.9-18.3l-36-62.4c-6.5-11.3-8.2-24.4-4.9-37 3.3-12.3 11.1-22.7 22-29.2l31.6-20.9c-4.7-17.8-7.9-36.1-9.6-54.5l-36.9-8.9c-12.5-2.4-23.4-9.5-30.7-19.9-7.5-10.7-10.3-23.6-8.1-36.4l12.5-70.9c4.6-26.2 29.5-43.9 55.7-39.7l37.6 4.3c7.9-16.7 17.2-32.7 27.7-47.9l-22.5-30.5c-8-9.9-11.8-22.3-10.7-35 1.1-13 7.3-24.7 17.2-33.1l55.2-46.3c20.4-17.1 50.8-14.6 68.2 5.4l26.1 27.4c16.8-7.8 34.2-14.1 52-18.9l2.3-37.8c0.4-26.5 22.1-47.9 48.8-47.9h72c26.6 0 48.3 21.4 48.8 47.9l2.3 37.8c17.8 4.8 35.3 11.2 52 18.9l26.1-27.4c17.4-20 47.8-22.5 68.2-5.4l55.2 46.3c10 8.4 16.1 20.1 17.2 33.1 1.1 12.7-2.7 25.1-10.7 35l-22.5 30.5c10.6 15.2 19.8 31.2 27.7 47.9l37.6-4.3c12.6-2 25.2 0.9 35.6 8.2 10.7 7.5 17.8 18.7 20.1 31.5l12.5 71c4.6 26.2-12.7 51.3-38.7 56.3l-36.9 8.9c-1.7 18.5-4.9 36.7-9.6 54.5l31.6 20.9c22.7 13.6 30.4 43.1 17.1 66.2l-36 62.4c-13.3 23-42.7 31.1-65.9 18.3l-34-16.9c-13.1 13-27.3 24.9-42.4 35.6l10.7 36.4c8.7 25.1-4.4 52.6-29.4 61.7L617 905c-25 9.1-52.7-3.6-62.2-28.4l-15.2-34.8c-18.5 1.5-36.9 1.5-55.3 0l-15.2 34.8c-4.5 11.9-13.4 21.4-24.9 26.7-6.6 3.1-13.6 4.7-20.6 4.7zM288.4 690.2l11.7 12.9c17.5 19.3 37.5 36.1 59.6 50l14.7 9.3-21.1 71.2c-0.5 1.4 0.2 3 1.7 3.5l67.7 24.6c0.7 0.3 1.4 0.2 2.1-0.1 0.7-0.3 1.2-0.8 1.4-1.6l0.5-1.3 29.1-66.8 17.2 2.3c12.9 1.8 26 2.6 38.9 2.6 12.9 0 26-0.9 38.9-2.6l17.2-2.3 29.6 68.1c0.5 1.4 2.1 2.2 3.5 1.7l67.7-24.6c1.4-0.5 2.2-2.1 1.7-3.5l-0.4-1.4-20.6-69.8 14.7-9.3c22-13.9 42.1-30.7 59.6-50l11.7-12.9 66.5 33.1c0.7 0.4 1.4 0.5 2.1 0.3 0.7-0.2 1.3-0.6 1.7-1.3l36-62.4c0.8-1.3 0.3-3-1-3.8l-1.2-0.8-60.7-40.2 5.3-16.6c7.9-24.7 12.4-50.4 13.4-76.6l0.7-17.4 72.3-17.4c1.5-0.3 2.5-1.7 2.2-3.2l-12.5-71c-0.1-0.7-0.5-1.4-1.1-1.8-0.6-0.4-1.3-0.6-2.1-0.5l-1.4 0.2-72.3 8.2-6.6-16.1c-9.8-24.1-22.9-46.7-38.9-67.3L727.2 322l44.2-59.7c0.5-0.6 0.7-1.3 0.6-2-0.1-0.8-0.4-1.4-1-1.9l-55.2-46.3c-1.2-1-2.9-0.8-3.9 0.3l-1 1.1-50.2 52.8-15.4-8.1c-23-12.2-47.6-21.1-73-26.6l-17-3.7-4.6-74.1c0-1.5-1.2-2.8-2.8-2.8h-72c-1.5 0-2.8 1.2-2.8 2.8v1.4l-4.5 72.7-17 3.7c-25.4 5.5-50 14.4-73 26.6l-15.4 8.1-51.2-53.9c-1-1.2-2.7-1.3-3.9-0.3l-55.2 46.3c-0.6 0.5-0.9 1.1-1 1.9-0.1 0.8 0.1 1.4 0.6 2l0.9 1.1 43.3 58.6-10.7 13.8c-16 20.6-29.1 43.2-38.9 67.3l-6.6 16.1-73.7-8.4c-1.5-0.3-2.9 0.7-3.2 2.2l-12.5 71c-0.1 0.7 0 1.4 0.5 2.1 0.4 0.6 1 1 1.8 1.1l1.4 0.3 70.9 17.1 0.7 17.4c1 26.1 5.5 51.9 13.4 76.6l5.3 16.6-61.9 41c-1.3 0.8-1.8 2.5-1 3.8l36 62.4c0.8 1.3 2.5 1.8 3.8 1l1.3-0.7 65.1-32.5z" p-id="17310"></path><path d="M512 756.5c-65.6 0-127.2-25.5-173.6-71.9-46.4-46.4-71.9-108-71.9-173.6s25.5-127.2 71.9-173.6c46.4-46.4 108-71.9 173.6-71.9s127.2 25.5 173.6 71.9c46.4 46.4 71.9 108 71.9 173.6S732 638.2 685.6 684.6C639.1 731 577.5 756.5 512 756.5z m0-444.9c-110 0-199.4 89.5-199.4 199.4S402 710.5 512 710.5 711.4 621 711.4 511.1 621.9 311.6 512 311.6z" p-id="17311"></path><path d="M512 579.4c-49 0-88.9-39.9-88.9-88.9s39.9-88.9 88.9-88.9c49 0 88.9 39.9 88.9 88.9S561 579.4 512 579.4z m0-131.8c-23.7 0-42.9 19.2-42.9 42.9s19.2 42.9 42.9 42.9 42.9-19.2 42.9-42.9-19.3-42.9-42.9-42.9z" p-id="17312"></path><path d="M397.7 684.9l-43.4-15.3c9.7-27.4 39.8-61.4 63.3-85.2 15.3-15.4 39.9-16.2 56.1-1.8l38.1 33.6 37.5-33.7c16.2-14.5 40.9-13.9 56.3 1.5 23.7 23.6 53.9 57.5 63.8 84.9L626 684.4c-5-14-23.4-37.9-49.6-64.5l-37.3 33.5c-15.5 13.9-38.9 14-54.5 0.2l-37.9-33.4c-25.8 26.7-44.1 50.6-49 64.7z" p-id="17313"></path></svg>