<?xml version="1.0" standalone="no"?><!DOCTYPE svg PUBLIC "-//W3C//DTD SVG 1.1//EN" "http://www.w3.org/Graphics/SVG/1.1/DTD/svg11.dtd"><svg t="1597034270540" class="icon" viewBox="0 0 1024 1024" version="1.1" xmlns="http://www.w3.org/2000/svg" p-id="7736" xmlns:xlink="http://www.w3.org/1999/xlink" width="200" height="200"><defs><style type="text/css"></style></defs><path d="M651.9808 237.226667a188.142933 188.142933 0 0 0-181.828267 48.7424 188.142933 188.142933 0 0 0-48.7424 181.828266l-117.6576 117.623467a94.1056 94.1056 0 1 0 133.12 133.12l117.623467-117.6576a188.142933 188.142933 0 0 0 181.828267-48.7424A188.142933 188.142933 0 0 0 785.066667 370.346667l-48.7424 48.7424a94.1056 94.1056 0 0 1-133.085867-133.12l48.7424-48.708267zM512 1024C229.239467 1024 0 794.760533 0 512 0 229.239467 229.239467 0 512 0c282.760533 0 512 229.239467 512 512 0 282.760533-229.239467 512-512 512z" p-id="7737"></path></svg>