<?xml version="1.0" standalone="no"?><!DOCTYPE svg PUBLIC "-//W3C//DTD SVG 1.1//EN" "http://www.w3.org/Graphics/SVG/1.1/DTD/svg11.dtd"><svg t="1597038722589" class="icon" viewBox="0 0 1024 1024" version="1.1" xmlns="http://www.w3.org/2000/svg" p-id="16367" xmlns:xlink="http://www.w3.org/1999/xlink" width="200" height="200"><defs><style type="text/css"></style></defs><path d="M925.74 1022.404H90.26c-35.48 0-64.268-28.748-64.268-64.172V65.768C25.992 30.344 54.784 1.6 90.26 1.6h835.48c35.48 0 64.268 28.748 64.268 64.172v892.464c0 35.424-28.792 64.172-64.268 64.172z m0-957.168H90.26v893.38h835.48V65.24z" p-id="16368"></path><path d="M573.98 727.788H187.896a31.896 31.896 0 0 1 0-63.788h386.084a31.896 31.896 0 1 1 0 63.788zM677.98 599.872H187.896a31.896 31.896 0 0 1 0-63.788h490.084a31.896 31.896 0 1 1 0 63.788zM766.752 855.772H187.928a31.928 31.928 0 0 1 0-63.852h578.824a31.928 31.928 0 1 1 0 63.852zM487.716 402.4L361.428 277.06c-0.96-1.412-0.64-3.336-1.864-4.556-6.424-6.352-14.78-8.856-23.2-8.468-8.356-0.388-16.708 2.116-23.136 8.468-1.284 1.22-0.9 3.144-1.928 4.56l-126.288 125.328c-12.016 12-12.016 31.38 0 43.32 12.084 11.936 31.62 11.936 43.64 0L336.36 338.8l107.776 106.912c12.02 11.94 31.56 11.94 43.576 0a30.416 30.416 0 0 0 0-43.316z" p-id="16369"></path><path d="M685.12 210.48c-0.708-0.96-0.388-2.308-1.288-3.204-1.8-1.8-4.432-1.412-6.556-2.696h-0.064a31.76 31.76 0 0 0-6.812-2.824h-0.192c-2.76-0.772-5.528-1.732-8.548-1.732-0.576 0-1.028 0.256-1.54 0.32-0.772 0-1.416-0.448-2.252-0.32h-124.744c-17.736 0-32.132 14.244-32.132 31.892s17.288 29.908 64.268 31.896h17.992l-138.24 137.2c-12.016 12-12.016 31.384 0 43.32 12.084 11.936 31.62 11.936 43.64 0l140.876-139.836v54.808c0 17.776 14.396 32.084 32.132 32.084 17.74 0 32.136-14.308 32.136-32.084V232.108v-0.128-0.064a29.84 29.84 0 0 0-2.44-11.808c-1.224-3.08-3.152-5.58-5.208-8.084-0.388-0.512-0.58-1.092-1.028-1.54z" p-id="16370"></path></svg>