<?xml version="1.0" standalone="no"?><!DOCTYPE svg PUBLIC "-//W3C//DTD SVG 1.1//EN" "http://www.w3.org/Graphics/SVG/1.1/DTD/svg11.dtd"><svg t="1597038836453" class="icon" viewBox="0 0 1024 1024" version="1.1" xmlns="http://www.w3.org/2000/svg" p-id="19534" xmlns:xlink="http://www.w3.org/1999/xlink" width="200" height="200"><defs><style type="text/css"></style></defs><path d="M288.128 640h448v-256h-448v256z m64-192h320v128h-320v-128z" p-id="19535"></path><path d="M111.488 789.12l43.52 42.88h-58.88v-640h192v96h448v-256h-448v96h-256v768h122.88l-43.52 42.88 45.44 45.44 120.32-120.32-120.32-120.32-45.44 45.44zM352.128 96h320v128h-320v-128z" p-id="19536"></path><path d="M873.728 480l40.96-41.6-45.44-44.8-86.4 86.4-33.92 33.92 120.32 120.32 45.44-45.44-44.8-44.8h58.24v288h-192V736h-448v256h448v-96h256V480h-118.4z m-201.6 448h-320v-128h320v128z" p-id="19537"></path></svg>