<?xml version="1.0" standalone="no"?><!DOCTYPE svg PUBLIC "-//W3C//DTD SVG 1.1//EN" "http://www.w3.org/Graphics/SVG/1.1/DTD/svg11.dtd"><svg t="1597038862754" class="icon" viewBox="0 0 1024 1024" version="1.1" xmlns="http://www.w3.org/2000/svg" p-id="21095" xmlns:xlink="http://www.w3.org/1999/xlink" width="200" height="200"><defs><style type="text/css"></style></defs><path d="M873.8 441L831 404.4V203.1c0-49.7-37.6-88.9-85.4-88.9H150.5c-47.7 0-85.4 39.2-85.4 88.9v619.7c0 49.6 37.7 88.9 85.4 88.9h595.2c47.7 0 85.4-39.2 85.4-88.9V608.3l42.7-34 85.4-68-85.4-65.3zM629 731.4H518.2l-112.1-220-44.5-99.9h-3.1c4.9 50.9 14 113.4 14 168.5v151.4H269v-456h110.9l112.7 218.2L537 594.7h3c-6.1-48.4-14.6-114-14.6-168.5V275.4H629v456z" p-id="21096"></path></svg>