<?xml version="1.0" standalone="no"?><!DOCTYPE svg PUBLIC "-//W3C//DTD SVG 1.1//EN" "http://www.w3.org/Graphics/SVG/1.1/DTD/svg11.dtd"><svg t="1597034025954" class="icon" viewBox="0 0 1024 1024" version="1.1" xmlns="http://www.w3.org/2000/svg" p-id="2277" xmlns:xlink="http://www.w3.org/1999/xlink" width="200" height="200"><defs><style type="text/css"></style></defs><path d="M823 200.8C743.3 121.2 633.4 72 512 72s-231.3 49.2-311 128.8C121.3 280.4 72 390.5 72 512s49.3 231.6 129 311.2S390.6 952 512 952s231.3-49.2 311-128.8c79.7-79.7 129-189.7 129-311.2s-49.3-231.6-129-311.2zM797.7 797c-73 73-174.1 118.1-285.7 118.1S299.4 869.9 226.3 797c-73-72.9-118.1-173.7-118.1-285 0-111.3 45.1-212.1 118.1-285 73.1-73 174.1-118.2 285.7-118.2S724.6 154 797.7 227c73 72.9 118.1 173.7 118.1 285 0 111.3-45.1 212.1-118.1 285z m-64.5-304.2L439.4 303.2C422 293.8 402 298 402 328.5v373.4c0 30.3 21.4 35.7 37.4 25.3l293.8-189.6c16.9-11.9 16.4-33.9 0-44.8zM438.8 682.5V348.4l260.7 166.9-260.7 167.2z" p-id="2278"></path></svg>